<svg xmlns="http://www.w3.org/2000/svg" viewBox="0 0 1081.74 720.8"><defs><style>.cls-1,.cls-2,.cls-3{fill:none;stroke:#f1f2f2;}.cls-2{stroke-miterlimit:4;}</style></defs><g id="Layer_2" data-name="Layer 2"><g id="Layer_1-2" data-name="Layer 1"><path class="cls-1" d="M885.51.41C819.84,46,716.32,111.12,553.25,203.65,299.44,347.65,157.57,479.53,81.3,569h0C19,642.13.46,686.93.46,686.93"/><path class="cls-2" d="M1081.2,125.15s5.3,16.43-110.23,79.71c-40.06,21.94-94.66,49.51-169,84-72.4,33.56-163.53,73.65-278.25,121.45C326.6,492.43,182.37,573.22,78,643.86,49.2,663.33,23.46,682,.46,699.77"/><path class="cls-1" d="M.46,435.62C75.29,371,159.13,288.3,249.27,182.84c67-78.36,126.18-137.7,178.16-182.43"/><path class="cls-2" d="M196.16.41C128.87,56.72,63.22,114.52.46,164.45"/><path class="cls-3" d="M364.72,720.41c46.71-104.23,131.94-221.83,279.52-346,83.8-70.52,151.24-131.81,205.46-185,81.72-80.15,133.39-141.86,165.68-189"/><path class="cls-1" d="M605.81,720.41C714.84,633,868,530.43,1081.24,422"/></g></g></svg>