<svg xmlns="http://www.w3.org/2000/svg" viewBox="0 0 1204.39 720.81"><defs><style>.cls-1,.cls-2,.cls-3{fill:none;stroke:#000;}.cls-2{stroke-miterlimit:4;}</style></defs><g id="Layer_2" data-name="Layer 2"><g id="Layer_1-2" data-name="Layer 1"><path class="cls-1" d="M946.76.41C878,47.21,769.62,114.13,598.88,209.17,333.14,357.09,184.6,492.55,104.75,584.47h0C39.5,659.57,20.11,705.59,20.11,705.59"/><path class="cls-2" d="M1203.85,71.85s5.9,18.28-122.76,88.71C1036.48,185,975.68,215.66,892.84,254,812.22,291.39,710.73,336,583,389.2,363.5,480.59,202.89,570.5,86.64,649.11c-32,21.67-60.72,42.48-86.33,62.23"/><path class="cls-1" d="M18.42,466.6c82.41-69.24,174.75-157.81,274-270.78,73.76-83.93,139-147.5,196.23-195.41"/><path class="cls-2" d="M257.41.41c-82.18,68.27-162.35,138.34-239,198.87"/><path class="cls-3" d="M426,720.41c46.71-104.23,131.94-221.83,279.52-346,83.8-70.52,151.24-131.81,205.46-185,81.72-80.15,133.39-141.86,165.68-189"/><path class="cls-1" d="M667.06,720.41c122.57-96.19,294.81-209,534.5-328.41"/></g></g></svg>