<svg xmlns="http://www.w3.org/2000/svg" viewBox="0 0 164.61 152.83"><defs><style>.cls-1{fill:#333;}.cls-2{fill:#414042;}.cls-3{fill:#424142;}</style></defs><g id="Layer_2" data-name="Layer 2"><g id="Layer_1-2" data-name="Layer 1"><path class="cls-1" d="M38.26,9.81l-.07,14.26H29.3l.07-14.29a.41.41,0,0,1,.44-.36l8,0A.41.41,0,0,1,38.26,9.81Z"/><path class="cls-2" d="M38.19,25.07l-.4,78a.41.41,0,0,1-.44.36l-8,0a.4.4,0,0,1-.43-.36l.4-77.95Z"/><path class="cls-1" d="M14.59,28.23l-.05,10.06H5.91L6,28.2a.42.42,0,0,1,.46-.38l7.71,0A.42.42,0,0,1,14.59,28.23Z"/><path class="cls-2" d="M14.54,39.29,14.32,82a.41.41,0,0,1-.46.37l-7.71,0a.42.42,0,0,1-.46-.38l.22-42.64Z"/><path class="cls-1" d="M62.48,23.58l-.06,11.87H53.78l.06-11.9a.38.38,0,0,1,.41-.34l7.82,0A.38.38,0,0,1,62.48,23.58Z"/><path class="cls-2" d="M62.42,36.45l-.27,52.83a.39.39,0,0,1-.42.34l-7.81,0a.38.38,0,0,1-.41-.34l.27-52.8Z"/><path class="cls-1" d="M86,.36,86,10H77.11l0-9.68a.37.37,0,0,1,.4-.33l8.09,0A.36.36,0,0,1,86,.36Z"/><path class="cls-1" d="M86,11,85.48,112.5a.37.37,0,0,1-.4.32l-8.09,0a.37.37,0,0,1-.4-.33L77.11,11Z"/><path class="cls-2" d="M111.55,10l-.08,15.6h-8.88L102.67,10a.38.38,0,0,1,.41-.34l8.06,0A.38.38,0,0,1,111.55,10Z"/><path class="cls-2" d="M111.47,26.6l-.39,76.68a.38.38,0,0,1-.41.34l-8.06,0a.38.38,0,0,1-.41-.34l.39-76.65Z"/><path class="cls-2" d="M136.94,36.67l-.08,14.67H128l.07-14.7a.4.4,0,0,1,.43-.35l8,0A.4.4,0,0,1,136.94,36.67Z"/><path class="cls-2" d="M136.86,52.34l-.14,26.88a.39.39,0,0,1-.42.35l-8,0a.39.39,0,0,1-.42-.35L128,52.34Z"/><path class="cls-2" d="M158.62,31.56l-.06,12.23h-8.89l.06-12.26a.4.4,0,0,1,.44-.35l8,0A.4.4,0,0,1,158.62,31.56Z"/><path class="cls-2" d="M158.56,44.79l-.21,39.64a.4.4,0,0,1-.43.36l-8,0a.4.4,0,0,1-.43-.36l.2-39.61Z"/><path class="cls-3" d="M17,128.18H10.33v18.44H6.63V128.18H0v-3H17Z"/><path class="cls-3" d="M26.54,146.62a5.41,5.41,0,0,1-.42-1.48c-11.06,7.44-13.69-11-.12-8.25,1.16-3.84-5-5.42-5.58-1.61H16.84c.44-6.59,13.07-6.64,12.74.47.05,2.42-.29,8.8.61,10.87Zm-3.94-2.57c2.92.17,3.82-2.52,3.4-4.91C21.9,137.88,16.78,142.72,22.6,144.05Z"/><path class="cls-3" d="M37.14,146.62H33.56V124h3.58Z"/><path class="cls-3" d="M46.22,139.79c-2.12,1-1.57,5-1.59,6.83H41.05V124h3.58v13.06c.67-1,4.67-5.4,5.52-6.37h4.3c-9,9.17-5,6.4.64,15.94C49.3,147.63,49.23,143.29,46.22,139.79Z"/><path class="cls-3" d="M56.8,126.54c-.15-2.54,4.19-2.53,4.05,0C61,129,56.66,129.05,56.8,126.54Zm3.8,20.08H57V130.68H60.6Z"/><path class="cls-3" d="M67.82,130.68l.1,1.85c10.52-8.43,10.21,7.51,9.71,14.09H74.05c-.79-2.55,2.25-13.84-2.8-13.3-5.38-.94-2.57,10.94-3.23,13.3H64.44V130.68Z"/><path class="cls-3" d="M80.65,138.54c-.72-6.2,6.24-11.06,10.67-6.25l.16-1.61h3.23c-.6,3.77,1.64,17.83-1.95,20.41-2.27,3.26-14.56,1.77-9.55-3,2.75,3.57,8.88,2,7.92-2.91C86.48,149.77,80,144.74,80.65,138.54Zm3.57.31c.78,8.52,8.85,6.58,6.91-3.72C88.51,131.12,83.52,134.28,84.22,138.85Z"/><path class="cls-3" d="M106.24,146.62V125.17c7.09-1.39,21.75,2.09,11.67,10.29,4.29.88,4.69,7.21,1.7,9.54C117.19,147.46,109.58,146.42,106.24,146.62ZM110,134.2c9.8,1.58,9.93-7.68,0-6Zm0,2.75v6.7C120.54,145.44,120.58,135.08,110,137Z"/><path class="cls-3" d="M124.26,138.51c-.65-10.77,15.86-10.51,14.82.31C139.77,149.54,123.26,149.35,124.26,138.51Zm3.58.31c-.59,7,8.53,6.69,7.68-.31C136.07,131.57,127,131.78,127.84,138.82Z"/><path class="cls-3" d="M146.6,126.81v3.87h2.81v2.66H146.6c.7,2-2.15,12.56,2.9,10.47.23,1.91,0,3.5-2.36,3.11-6.31.56-3.55-10-4.12-13.58H140.4v-2.66H143v-3.87Z"/><path class="cls-3" d="M161.08,142.29c-.14-1.77-1.57-1.84-3.4-2.34-15.52-3.38,4.91-17,6.8-4.48H160.9c.22-4-7.87-2.43-4.77.89,2,1.08,6.62,1.24,7.89,3.56,3.87,8.16-12.56,9.7-12.6,1.68h3.47C154.74,144.72,160.82,145.33,161.08,142.29Z"/></g></g></svg>