<svg xmlns="http://www.w3.org/2000/svg" viewBox="0 0 164.61 155.91"><defs><style>.cls-1{fill:#91d1d4;}</style></defs><g id="Layer_2" data-name="Layer 2"><g id="Layer_1-2" data-name="Layer 1"><path class="cls-1" d="M39,9.81l-.07,14.26H30L30.1,9.78a.41.41,0,0,1,.44-.36l8,0A.41.41,0,0,1,39,9.81Z"/><path class="cls-1" d="M38.92,25.07l-.4,78a.41.41,0,0,1-.44.36l-8,0a.4.4,0,0,1-.43-.36L30,25.07Z"/><path class="cls-1" d="M15.32,28.23l-.05,10.06H6.64L6.69,28.2a.42.42,0,0,1,.46-.38l7.71,0A.42.42,0,0,1,15.32,28.23Z"/><path class="cls-1" d="M15.27,39.29,15.05,82a.41.41,0,0,1-.46.37l-7.71,0a.42.42,0,0,1-.46-.38l.22-42.64Z"/><path class="cls-1" d="M63.21,23.58l-.06,11.87H54.51l.06-11.9a.38.38,0,0,1,.41-.34l7.82,0A.38.38,0,0,1,63.21,23.58Z"/><path class="cls-1" d="M63.15,36.45l-.27,52.83a.39.39,0,0,1-.42.34l-7.81,0a.38.38,0,0,1-.41-.34l.27-52.8Z"/><path class="cls-1" d="M86.77.36l0,9.65H77.84l0-9.68a.37.37,0,0,1,.4-.33l8.09,0A.36.36,0,0,1,86.77.36Z"/><path class="cls-1" d="M86.72,11,86.21,112.5a.37.37,0,0,1-.4.32l-8.09,0a.37.37,0,0,1-.4-.33L77.84,11Z"/><path class="cls-1" d="M112.28,10l-.08,15.6h-8.88L103.4,10a.38.38,0,0,1,.41-.34l8.06,0A.38.38,0,0,1,112.28,10Z"/><path class="cls-1" d="M112.2,26.6l-.39,76.68a.38.38,0,0,1-.41.34l-8.06,0a.38.38,0,0,1-.41-.34l.39-76.65Z"/><path class="cls-1" d="M137.67,36.67l-.08,14.67h-8.88l.07-14.7a.4.4,0,0,1,.43-.35l8,0A.4.4,0,0,1,137.67,36.67Z"/><path class="cls-1" d="M137.59,52.34l-.14,26.88a.39.39,0,0,1-.42.35l-8,0a.39.39,0,0,1-.42-.35l.14-26.85Z"/><path class="cls-1" d="M159.35,31.56l-.06,12.23H150.4l.06-12.26a.4.4,0,0,1,.44-.35l8,0A.4.4,0,0,1,159.35,31.56Z"/><path class="cls-1" d="M159.29,44.79l-.21,39.64a.4.4,0,0,1-.43.36l-8,0a.4.4,0,0,1-.43-.36l.2-39.61Z"/><path class="cls-1" d="M17,131.26H10.33v18.45H6.63V131.26H0v-3H17Z"/><path class="cls-1" d="M26.54,149.71a5.5,5.5,0,0,1-.42-1.49c-11.06,7.45-13.69-11-.12-8.25,1.16-3.84-5-5.41-5.58-1.61H16.84c.44-6.59,13.07-6.64,12.74.47.05,2.42-.29,8.8.61,10.88Zm-3.94-2.58c2.92.17,3.82-2.52,3.4-4.91C21.9,141,16.78,145.8,22.6,147.13Z"/><path class="cls-1" d="M37.14,149.71H33.56V127.08h3.58Z"/><path class="cls-1" d="M46.22,142.87c-2.12,1-1.57,5-1.59,6.84H41.05V127.08h3.58v13c.67-1,4.67-5.4,5.52-6.37h4.3c-9,9.17-5,6.4.64,16C49.3,150.71,49.23,146.37,46.22,142.87Z"/><path class="cls-1" d="M56.8,129.62c-.15-2.54,4.19-2.53,4.05,0C61,132.12,56.66,132.13,56.8,129.62Zm3.8,20.09H57v-16H60.6Z"/><path class="cls-1" d="M67.82,133.76l.1,1.85c10.52-8.43,10.21,7.52,9.71,14.1H74.05c-.79-2.56,2.25-13.85-2.8-13.31-5.38-.94-2.57,10.94-3.23,13.31H64.44v-16Z"/><path class="cls-1" d="M80.65,141.62c-.72-6.2,6.24-11.06,10.67-6.25l.16-1.61h3.23c-.6,3.77,1.64,17.83-1.95,20.41-2.27,3.26-14.56,1.77-9.55-3,2.75,3.57,8.88,2.05,7.92-2.91C86.48,152.85,80,147.82,80.65,141.62Zm3.57.31c.78,8.52,8.85,6.58,6.91-3.72C88.51,134.2,83.52,137.36,84.22,141.93Z"/><path class="cls-1" d="M106.24,149.71V128.25c7.09-1.39,21.75,2.09,11.67,10.29,4.29.88,4.69,7.21,1.7,9.55C117.19,150.54,109.58,149.5,106.24,149.71ZM110,137.28c9.8,1.58,9.93-7.68,0-6Zm0,2.75v6.7C120.54,148.52,120.58,138.17,110,140Z"/><path class="cls-1" d="M124.26,141.59c-.65-10.77,15.86-10.51,14.82.31C139.77,152.63,123.26,152.43,124.26,141.59Zm3.58.31c-.59,7,8.53,6.69,7.68-.31C136.07,134.65,127,134.86,127.84,141.9Z"/><path class="cls-1" d="M146.6,129.89v3.87h2.81v2.66H146.6c.7,2-2.15,12.56,2.9,10.47.23,1.91,0,3.51-2.36,3.11-6.31.56-3.55-10-4.12-13.58H140.4v-2.66H143v-3.87Z"/><path class="cls-1" d="M161.08,145.37c-.14-1.77-1.57-1.84-3.4-2.34-15.52-3.38,4.91-17,6.8-4.48H160.9c.22-4-7.87-2.43-4.77.89,2,1.08,6.62,1.24,7.89,3.56,3.87,8.16-12.56,9.71-12.6,1.68h3.47C154.74,147.8,160.82,148.41,161.08,145.37Z"/></g></g></svg>