<svg xmlns="http://www.w3.org/2000/svg" viewBox="0 0 152.93 112.82"><defs><style>.cls-1{fill:#91d1d4;}</style></defs><g id="Layer_2" data-name="Layer 2"><g id="Layer_1-2" data-name="Layer 1"><path class="cls-1" d="M32.57,9.81,32.5,24.07H23.61l.07-14.29a.41.41,0,0,1,.44-.36l8,0A.41.41,0,0,1,32.57,9.81Z"/><path class="cls-1" d="M32.5,25.07l-.4,78a.41.41,0,0,1-.44.36l-8,0a.4.4,0,0,1-.43-.36l.4-77.95Z"/><path class="cls-1" d="M8.9,28.23,8.85,38.29H.22L.27,28.2a.42.42,0,0,1,.46-.38l7.71,0A.42.42,0,0,1,8.9,28.23Z"/><path class="cls-1" d="M8.85,39.29,8.63,82a.41.41,0,0,1-.46.37l-7.71,0A.42.42,0,0,1,0,81.93L.22,39.29Z"/><path class="cls-1" d="M56.79,23.58l-.06,11.87H48.09l.06-11.9a.38.38,0,0,1,.41-.34l7.82,0A.38.38,0,0,1,56.79,23.58Z"/><path class="cls-1" d="M56.73,36.45l-.27,52.83a.39.39,0,0,1-.42.34l-7.81,0a.38.38,0,0,1-.41-.34l.27-52.8Z"/><path class="cls-1" d="M80.35.36l0,9.65H71.42l0-9.68a.37.37,0,0,1,.4-.33L80,0A.36.36,0,0,1,80.35.36Z"/><path class="cls-1" d="M80.3,11,79.79,112.5a.37.37,0,0,1-.4.32l-8.09,0a.37.37,0,0,1-.4-.33L71.42,11Z"/><path class="cls-1" d="M105.86,10l-.08,15.6H96.9L97,10a.38.38,0,0,1,.41-.34l8.06,0A.38.38,0,0,1,105.86,10Z"/><path class="cls-1" d="M105.78,26.6l-.39,76.68a.38.38,0,0,1-.41.34l-8.06,0a.38.38,0,0,1-.41-.34L96.9,26.6Z"/><path class="cls-1" d="M131.25,36.67l-.08,14.67h-8.88l.07-14.7a.4.4,0,0,1,.43-.35l8,0A.4.4,0,0,1,131.25,36.67Z"/><path class="cls-1" d="M131.17,52.34,131,79.22a.39.39,0,0,1-.42.35l-8,0a.39.39,0,0,1-.42-.35l.14-26.85Z"/><path class="cls-1" d="M152.93,31.56l-.06,12.23H144L144,31.53a.4.4,0,0,1,.44-.35l8,0A.4.4,0,0,1,152.93,31.56Z"/><path class="cls-1" d="M152.87,44.79l-.21,39.64a.4.4,0,0,1-.43.36l-8,0a.4.4,0,0,1-.43-.36l.2-39.61Z"/></g></g></svg>