<svg xmlns="http://www.w3.org/2000/svg" width="3375.299" height="2572.303" viewBox="0 0 3375.299 2572.303">
  <g id="bg-lines" transform="translate(591.347 816.521)">
    <path id="Path_16" data-name="Path 16" d="M0,1080S146.708,731.8,885.2,320.746s714.189-478.216,714.189-478.216" transform="translate(301.5 0.5)" fill="none" stroke="#000" stroke-width="1"/>
    <path id="Path_17" data-name="Path 17" d="M0,1266.75S187.526,866.006,1131.486,392.915s912.9-550.385,912.9-550.385" transform="matrix(0.998, 0.07, -0.07, 0.998, 88.364, 26.403)" fill="none" stroke="#000" stroke-width="1"/>
    <path id="Path_18" data-name="Path 18" d="M0,1112.451s429.952-107.86,1019.881-779.165,822.851-490.757,822.851-490.757" transform="translate(-301.858 -32.451)" fill="none" stroke="#000" stroke-width="1"/>
    <path id="Path_19" data-name="Path 19" d="M0,1266.75s46.182-121.3,483.176-305.055S1467.537-99.583,2030.957-156.532c943.96-473.09,13.424-.939,13.424-.939" transform="matrix(0.998, 0.07, -0.07, 0.998, -502.505, -449.852)" fill="none" stroke="#000" stroke-width="1"/>
    <path id="Path_20" data-name="Path 20" d="M0,1112.451s-64.711-629.515,918.025-857.9,924.708-412.024,924.708-412.024" transform="matrix(0.891, -0.454, 0.454, 0.891, 416.233, 763.908)" fill="none" stroke="#000" stroke-width="1"/>
    <path id="Path_21" data-name="Path 21" d="M0,1112.451S169.029,755.123,1019.881,333.286s822.851-490.757,822.851-490.757" transform="translate(940.58 359.549)" fill="none" stroke="#000" stroke-width="1"/>
  </g>
</svg>
