<svg xmlns="http://www.w3.org/2000/svg" width="5753" height="289.219" viewBox="0 0 5753 289.219">
  <g id="big-bg" transform="translate(-3433 4326)">
    <g id="Group_41" data-name="Group 41" transform="translate(3444 -4378.219)">
      <g id="Group_16" data-name="Group 16" transform="translate(-11 52)">
        <rect id="Rectangle_9" data-name="Rectangle 9" width="1920" height="192" transform="translate(0 0.219)" fill="#91d2d5"/>
        <g id="Group_14" data-name="Group 14" transform="translate(0 108.035)">
          <path id="Path_9" data-name="Path 9" d="M0-1.7s76.148,10.377,564.4,0c268.541-5.708,641.545-8.89,942.278-3.467C1744.364-3.805,1920-1.7,1920-1.7V137.438H0Z" transform="translate(0 7.965)" fill="#c6eceb"/>
          <path id="Path_10" data-name="Path 10" d="M0-1.722s554.941,14.251,1045.089,0,874.911,0,874.911,0v139.16H0Z" transform="translate(0 24.965)" fill="#b6edd9"/>
          <path id="Path_11" data-name="Path 11" d="M0-2.671s498.147,22.828,982.5,0,937.5,0,937.5,0V137.438H0Z" transform="translate(0 43.965)" fill="#e2fae2"/>
        </g>
      </g>
    </g>
    <g id="Group_42" data-name="Group 42" transform="translate(5364 -4378.219)">
      <g id="Group_16-2" data-name="Group 16" transform="translate(-11 52)">
        <rect id="Rectangle_9-2" data-name="Rectangle 9" width="1920" height="192" transform="translate(0 0.219)" fill="#91d2d5"/>
        <g id="Group_14-2" data-name="Group 14" transform="translate(0 108.035)">
          <path id="Path_9-2" data-name="Path 9" d="M0-1.7s76.148,10.377,564.4,0c268.541-5.708,641.545-8.89,942.278-3.467C1744.364-3.805,1920-1.7,1920-1.7V137.438H0Z" transform="translate(0 7.965)" fill="#c6eceb"/>
          <path id="Path_10-2" data-name="Path 10" d="M0-1.722s554.941,14.251,1045.089,0,874.911,0,874.911,0v139.16H0Z" transform="translate(0 24.965)" fill="#b6edd9"/>
          <path id="Path_11-2" data-name="Path 11" d="M0-2.671s497.888,9.2,982.237-13.623S1920-2.671,1920-2.671V137.438H0Z" transform="translate(0 43.965)" fill="#e2fae2"/>
        </g>
      </g>
    </g>
    <g id="Group_43" data-name="Group 43" transform="translate(7277 -4378.219)">
      <g id="Group_16-3" data-name="Group 16" transform="translate(-11 52)">
        <rect id="Rectangle_9-3" data-name="Rectangle 9" width="1920" height="192" transform="translate(0 0.219)" fill="#91d2d5"/>
        <g id="Group_14-3" data-name="Group 14" transform="translate(0 108.035)">
          <path id="Path_9-3" data-name="Path 9" d="M0-1.7s76.148,10.377,564.4,0c377.278-17.955,641.679,15.351,942.278-3.467C1744.364-3.805,1920-1.7,1920-1.7V137.438H0Z" transform="translate(0 7.965)" fill="#c6eceb"/>
          <path id="Path_10-3" data-name="Path 10" d="M0-1.722S147.756,2.072,357.742,3.784c524.364-1.47,450.116,1.391,687.348-5.506,490.148-14.251,874.911,0,874.911,0v139.16H0Z" transform="translate(0 24.965)" fill="#b6edd9"/>
          <path id="Path_11-3" data-name="Path 11" d="M0-2.671s497.888,9.2,982.237-13.623c161.773-7.625,319.17-10.156,456.631-10.146,273.692,11.987,472.851,10.146,472.851,10.146L1920,137.438H0Z" transform="translate(0 43.965)" fill="#e2fae2"/>
        </g>
      </g>
    </g>
  </g>
</svg>
