<svg xmlns="http://www.w3.org/2000/svg" width="509.081" height="498.86" viewBox="0 0 509.081 498.86">
  <path id="Icon_material-account-circle" data-name="Icon material-account-circle" d="M241.882,3C110.019,3-14.346,110.019-14.346,241.882S110.019,501.86,241.882,501.86,494.735,373.744,494.735,241.882,373.744,3,241.882,3Zm0,71.664a71.664,71.664,0,1,1-71.664,71.664A71.568,71.568,0,0,1,241.882,74.664Zm0,339.212c-59.72,0-129.423,3.488-160.239-42.855.717-47.537,112.463-107.641,160.239-107.641,47.537,0,160.194,55.345,160.91,102.883-30.816,46.343-101.19,47.613-160.91,47.613Z" transform="translate(14.346 -3)" fill="#19818a"/>
</svg>
