<svg xmlns="http://www.w3.org/2000/svg" viewBox="0 0 168.84 151.83"><defs><style>.cls-1{fill:#414042;}.cls-2{fill:#333;}.cls-3{fill:#fff;stroke:#fff;stroke-miterlimit:10;}.cls-4{fill:#424142;}</style></defs><g id="Layer_2" data-name="Layer 2"><g id="Layer_1-2" data-name="Layer 1"><path class="cls-1" d="M38.51,102.4l-8,0a.4.4,0,0,1-.43-.36l.47-92.25A.4.4,0,0,1,31,9.42l8,0a.4.4,0,0,1,.43.35L39,102.05A.4.4,0,0,1,38.51,102.4Z"/><path class="cls-1" d="M15,81.33l-7.72,0a.44.44,0,0,1-.46-.39l.27-52.73a.43.43,0,0,1,.46-.37l7.72,0a.43.43,0,0,1,.46.38L15.49,81A.43.43,0,0,1,15,81.33Z"/><path class="cls-1" d="M62.9,88.61l-7.82,0a.39.39,0,0,1-.41-.34L55,23.54a.39.39,0,0,1,.42-.33l7.81,0a.38.38,0,0,1,.41.34l-.33,64.71A.37.37,0,0,1,62.9,88.61Z"/><path class="cls-2" d="M86.24,111.82l-8.09,0a.36.36,0,0,1-.39-.32L78.32.33a.37.37,0,0,1,.4-.33l8.09,0a.37.37,0,0,1,.4.33L86.64,111.5A.37.37,0,0,1,86.24,111.82Z"/><path class="cls-1" d="M111.83,102.61l-8.06,0a.39.39,0,0,1-.41-.34L103.83,10a.39.39,0,0,1,.42-.34l8.06,0a.38.38,0,0,1,.41.34l-.47,92.28A.38.38,0,0,1,111.83,102.61Z"/><path class="cls-1" d="M137.46,78.57l-8,0a.4.4,0,0,1-.43-.35l.22-41.55a.39.39,0,0,1,.42-.35l8,0a.39.39,0,0,1,.42.35l-.21,41.55A.4.4,0,0,1,137.46,78.57Z"/><path class="cls-1" d="M159.09,83.78l-8,0a.41.41,0,0,1-.43-.36l.27-51.88a.4.4,0,0,1,.43-.35l8,0a.39.39,0,0,1,.42.35l-.26,51.88A.39.39,0,0,1,159.09,83.78Z"/><line class="cls-3" y1="38.29" x2="25.07" y2="38.29"/><line class="cls-3" x1="22.39" y1="24.07" x2="47.46" y2="24.07"/><line class="cls-3" x1="48.38" y1="35.45" x2="73.45" y2="35.45"/><line class="cls-3" x1="68.25" y1="10.01" x2="93.32" y2="10.01"/><line class="cls-3" x1="95.51" y1="25.6" x2="120.58" y2="25.6"/><line class="cls-3" x1="121.02" y1="51.34" x2="146.09" y2="51.34"/><line class="cls-3" x1="143.77" y1="43.79" x2="168.84" y2="43.79"/><path class="cls-4" d="M18.18,127.18H11.49v18.44H7.8V127.18H1.17v-3h17Z"/><path class="cls-4" d="M27.7,145.62a5.46,5.46,0,0,1-.41-1.49c-11.06,7.45-13.7-11-.12-8.25,1.15-3.83-5-5.41-5.58-1.6H18c.44-6.59,13.06-6.65,12.74.47.05,2.42-.3,8.79.6,10.87ZM23.77,143c2.92.17,3.82-2.52,3.4-4.9C23.06,136.88,17.94,141.71,23.77,143Z"/><path class="cls-4" d="M38.31,145.62H34.73V123h3.58Z"/><path class="cls-4" d="M47.38,138.79c-2.11,1-1.57,5-1.59,6.83H42.21V123h3.58v13.06c.67-1,4.68-5.4,5.53-6.37h4.3c-9,9.17-5,6.4.63,15.94C50.46,146.63,50.4,142.29,47.38,138.79Z"/><path class="cls-4" d="M58,125.54c-.14-2.54,4.19-2.53,4,0C62.14,128,57.83,128,58,125.54Zm3.8,20.08H58.18V129.68h3.58Z"/><path class="cls-4" d="M69,129.68l.11,1.84c10.52-8.42,10.2,7.52,9.71,14.1H75.22c-.79-2.55,2.24-13.84-2.8-13.3-5.39-.95-2.57,10.93-3.23,13.3H65.61V129.68Z"/><path class="cls-4" d="M81.82,137.53c-.72-6.19,6.24-11,10.66-6.24l.17-1.61h3.22c-.59,3.77,1.64,17.83-2,20.41-2.26,3.25-14.56,1.76-9.54-3,2.75,3.57,8.88,2,7.91-2.92C87.64,148.76,81.12,143.74,81.82,137.53Zm3.56.31c.79,8.53,8.85,6.59,6.91-3.71C89.68,130.11,84.69,133.27,85.38,137.84Z"/><path class="cls-4" d="M107.41,145.62V124.17c7.08-1.39,21.74,2.09,11.67,10.28,4.29.89,4.68,7.22,1.7,9.55C118.35,146.46,110.75,145.41,107.41,145.62Zm3.73-12.42c9.79,1.58,9.93-7.68,0-6Zm0,2.74v6.71C121.71,144.44,121.74,134.08,111.14,135.94Z"/><path class="cls-4" d="M125.43,137.5c-.65-10.77,15.85-10.5,14.82.31C140.93,148.54,124.42,148.35,125.43,137.5Zm3.58.31c-.6,7,8.52,6.7,7.67-.31C137.23,130.57,128.18,130.77,129,137.81Z"/><path class="cls-4" d="M147.76,125.81v3.87h2.82v2.65h-2.82c.71,2-2.15,12.56,2.91,10.48.22,1.91,0,3.5-2.36,3.11-6.31.55-3.56-10-4.13-13.59h-2.62v-2.65h2.62v-3.87Z"/><path class="cls-4" d="M162.25,141.29c-.15-1.77-1.58-1.84-3.41-2.34-15.51-3.38,4.92-17,6.81-4.48h-3.58c.21-4-7.87-2.43-4.77.88,2,1.09,6.62,1.25,7.89,3.57,3.86,8.16-12.56,9.7-12.61,1.68h3.48C155.91,143.72,162,144.33,162.25,141.29Z"/></g></g></svg>